PathFileType	4	(X/Y/Z)	Patient4_TMGait_0pt4_01_right_08.trc.trc
DataRate	CameraRate	NumFrames	NumMarkers	Units	OrigDataRate	OrigDataStartFrame	OrigNumFrames
75.268817204301	75.268817204301	4	33	mm	75.268817204301	36	       141
Frame#	Time	Sacral			L.Shoulder			Chest			R.Shoulder			Neck			R.ASIS			L.ASIS			R.Thigh.Superior			R.Thigh.Lateral			R.Thigh.Inferior			R.Patella			L.Thigh.Superior			L.Thigh.Lateral			L.Thigh.Inferior			L.Patella			L.Shank.Superior			L.Shank.Lateral			L.Shank.Inferior			R.Shank.Superior			R.Shank.Lateral			R.Shank.Inferior			R.Heel			R.Midfoot.Superior			R.Midfoot.Lateral			R.Toe			L.Heel			L.Midfoot.Lateral			L.Midfoot.Superior			L.Toe			L.Elbow			L.Wrist			R.Elbow			R.Wrist			
		X1	Y1	Z1	X2	Y2	Z2	X3	Y3	Z3	X4	Y4	Z4	X5	Y5	Z5	X6	Y6	Z6	X7	Y7	Z7	X8	Y8	Z8	X9	Y9	Z9	X10	Y10	Z10	X11	Y11	Z11	X12	Y12	Z12	X13	Y13	Z13	X14	Y14	Z14	X15	Y15	Z15	X16	Y16	Z16	X17	Y17	Z17	X18	Y18	Z18	X19	Y19	Z19	X20	Y20	Z20	X21	Y21	Z21	X22	Y22	Z22	X23	Y23	Z23	X24	Y24	Z24	X25	Y25	Z25	X26	Y26	Z26	X27	Y27	Z27	X28	Y28	Z28	X29	Y29	Z29	X30	Y30	Z30	X31	Y31	Z31	X32	Y32	Z32	X33	Y33	Z33	

36	10.465000000000	810.684664792436	1002.407516353338	500.762965702999	1000.400046112928	1431.562209935903	323.532968456908	1085.388549803669	1367.360708753761	495.894984024900	983.709773147755	1441.740986970988	659.471418057951	966.888187122411	1496.327486186695	478.048075308680	1034.201627721524	946.521116270126	634.636145566304	1036.125289516589	962.338028591329	358.577689258370	1087.468615762379	748.160012736598	601.638400880551	1010.717788378929	634.824292176033	660.356558209520	1091.909625689527	586.867771753257	580.877936835451	1096.733583495628	500.177639799712	586.574296110150	1061.328553218068	736.855033819201	383.357471107932	964.289376654836	628.733994926814	315.616740203060	1041.742547505574	539.883210320934	375.610450152295	1031.197291864305	459.029937500026	374.432490627326	971.064526000190	400.131369774055	368.535744008408	839.798085966508	335.351700851137	318.869203802761	842.881048126281	207.770088247791	379.726803112849	1073.529667001821	410.176709306091	594.349798316446	1007.176330973333	303.303523161379	655.289850525321	1054.724483888139	210.023765338584	593.746725289201	928.896735061907	43.029932320240	563.239227728377	1098.953487934633	98.211605492060	600.875880127667	1011.575414902456	37.333014394581	639.307298480438	1219.454822548961	46.775027676370	629.983694619757	665.772434661013	104.059576679242	417.164874917626	735.964654455061	69.378680310814	343.001160245621	833.164958281472	106.774782389234	366.254875536905	937.802725923211	35.963249726733	351.647042762800	1018.381932294490	1078.962901654715	208.811465066734	1166.359281893137	863.120575699658	206.269822335405	914.391555070522	1098.774204169224	774.300695748091	1028.305622868394	864.150193005015	786.310829588607	
37	10.478285714286	811.351034208149	1002.434855192665	504.915323335554	998.594956928222	1432.017655697442	326.280132364991	1085.401049479936	1367.940353263223	497.784495748509	985.205015345460	1442.045963846735	662.324401880362	966.376272814790	1496.599720702026	481.067559259700	1036.031432334459	946.717870797728	636.636471530545	1035.604570637385	962.856567582943	360.776909873828	1087.485262417620	747.485634250242	603.840693265128	1009.705914018664	634.710476066088	662.373999852711	1090.371007887995	586.250383019613	582.818488347796	1094.484729542270	499.514840512630	588.183345956075	1066.168672798579	738.920296385041	385.465513074186	973.222051395858	628.648701059423	316.896079904557	1053.567083844407	541.223373760730	376.469870353886	1043.907969105492	459.030037679932	374.201253290825	981.528603683576	400.458392504274	368.533472351147	847.924707644764	340.482427246347	319.146796030593	847.168279265057	212.532320295879	378.942746946205	1070.765583548553	409.652837194889	595.640358957112	1003.805946488875	303.056385231624	656.217612181503	1050.608440705980	209.678464361174	594.234139972478	923.738597360553	43.060986012023	563.304396655823	1093.886073874612	98.099784067499	601.047608799539	1006.393994491488	37.310620688271	639.392408810058	1214.353678919671	46.332749723482	630.103519319190	666.228653135790	117.453197783502	415.891047268350	734.479186353420	78.229847863188	342.239284284507	833.522474926435	110.243440562632	365.275470317221	932.832654498013	35.008879777164	352.000645140971	1014.722571913033	1078.962523942077	212.671740343575	1152.760956396750	856.610728584283	208.361092490301	922.501560889914	1098.496953288761	779.768132272328	1047.390411077697	869.746689275864	790.631789830746	
38	10.491571428571	811.787983343407	1002.332914631646	509.032903623221	996.599427412112	1432.229466589571	328.882438872027	1085.352503853106	1368.288564609019	499.453105632651	986.811582416965	1442.160513720849	665.039939638868	965.880634861508	1496.686941835336	483.957758222150	1037.660539871347	946.746980846247	638.516875261883	1034.766794775465	963.052047082530	362.903133246532	1087.403329515570	746.754570477000	606.079806405203	1008.673703917367	634.504505247877	664.419679867874	1088.856434553647	585.597211382884	584.798819633830	1092.257449898540	498.802707070723	589.884290627814	1071.034238209186	741.125869641667	387.569595272884	982.443577498360	628.730103295170	318.101063845739	1065.570362298579	542.933335300327	377.391207371538	1056.939771213865	459.496781063959	374.214072796551	992.530366561478	401.092368667639	368.675710791424	856.843245151736	345.917387914805	319.363462827283	852.134208620106	217.822218030692	378.335366836023	1068.029937174603	409.064024748796	596.980464495648	1000.450341272009	302.744137551998	657.203179835156	1046.484792479886	209.281328321728	594.749978739755	918.529365719522	43.096235655485	563.363709601976	1088.771608580857	97.968874448632	601.195349625889	1001.162820964485	37.281600413741	639.471136225780	1209.212642282567	45.830553221607	630.203111953993	667.633405100443	131.842388165455	414.652240042932	733.743844976157	88.197582091781	341.482050167410	834.432491930328	114.447498596948	364.497914456758	928.097605385692	33.945279793488	352.348569215418	1010.547975013741	1078.708811256332	216.351792383487	1138.852218707932	850.622259714838	210.530330946176	930.817946539109	1098.286828369873	785.274697511854	1066.710031917099	876.124039624909	794.632224573201	
39	10.504857142857	811.992637696470	1002.125724517794	513.057964268550	994.463597641821	1432.220283565267	331.322541482518	1085.246421387690	1368.418767537124	500.900697099403	988.500704829609	1442.105270206960	667.593428846755	965.419482393629	1496.615752846012	486.689136358472	1039.062830806844	946.627414864758	640.300404069162	1033.665766272136	962.960453434410	364.957504396451	1087.275515407179	746.013677824032	608.314499019063	1007.710541188161	634.223085491741	666.461411983094	1087.454661249690	584.931895745917	586.775979100860	1090.144940006299	498.047300826430	591.629432310889	1075.793863280282	743.490616800211	389.657719826800	991.724531543838	629.058274172885	319.238396116350	1077.476376017889	545.069463950305	378.363793032243	1070.041985016527	460.493339881634	374.459005918841	1003.836632785712	402.089470147350	368.962818819762	866.335417294273	351.597825665817	319.539128906185	857.669203814707	223.555146172755	377.926169560820	1065.392886924745	408.417080952049	598.331516547370	997.172594964564	302.389475290680	658.231657397486	1042.385488933094	208.839037028356	595.278965131777	913.274558666777	43.135983167860	563.433026267606	1083.618582857572	97.826619896285	601.335381982614	995.891225353370	37.249915887776	639.554906837643	1204.037487131837	45.298434893496	630.295359881479	669.983719425853	146.815428648242	413.534848549965	733.832210096688	99.028761027510	340.768691350979	835.913235296493	119.362786426023	363.925054149666	923.810010762465	32.865315464832	352.600498203680	1005.781064382356	1078.226037938317	219.835528987018	1124.726270550026	845.190736149779	212.788457947360	939.355589369365	1098.137288024239	790.725777291616	1086.144404461522	883.265951627162	798.254755252986	
